<svg viewBox="0 0 200 200" xmlns="http://www.w3.org/2000/svg">
  <path fill="#fcbfb7" d="M50.5,-22.2C56.7,2.7,47,27,29.1,40C11.1,53,-15,54.8,-30.7,43.2C-46.5,31.5,-51.9,6.5,-45,-19.3C-38.2,-45,-19.1,-71.4,1.5,-71.9C22.2,-72.4,44.3,-47,50.5,-22.2Z" transform="translate(100 100)" />
  <path fill="#fcbfb7" d="M51.7,-10.8C60.5,10.3,56.7,41.5,40.1,53C23.5,64.5,-5.8,56.4,-26.9,40.3C-48,24.2,-60.9,0.1,-55.1,-16.9C-49.2,-33.9,-24.6,-43.7,-1.6,-43.2C21.5,-42.7,42.9,-31.8,51.7,-10.8Z" opacity=".5" transform="translate(100 100)" />
</svg>