<?xml version="1.0" standalone="no"?>
<!DOCTYPE svg PUBLIC "-//W3C//DTD SVG 20010904//EN"
 "http://www.w3.org/TR/2001/REC-SVG-20010904/DTD/svg10.dtd">
<svg version="1.0" xmlns="http://www.w3.org/2000/svg"
 width="700.000000pt" height="700.000000pt" viewBox="0 0 700.000000 700.000000"
 preserveAspectRatio="xMidYMid meet">
<metadata>
Created by potrace 1.11, written by Peter Selinger 2001-2013
</metadata>
<g transform="translate(0.000000,700.000000) scale(0.100000,-0.100000)"
fill="#000000" stroke="none">
<path d="M1035 6992 c-28 -6 -64 -40 -85 -82 -33 -66 -148 -481 -142 -512 5
-24 34 -31 79 -19 70 19 99 63 193 296 66 162 100 262 100 291 0 16 -7 24 -27
28 -29 6 -83 5 -118 -2z"/>
<path d="M2368 6455 c-2 -1 -38 -5 -81 -8 -93 -8 -133 -24 -129 -52 9 -52 58
-64 243 -65 l135 0 1 -417 c1 -448 6 -571 23 -602 11 -22 38 -38 58 -35 6 1
20 2 30 3 21 1 39 31 48 81 3 19 8 242 9 495 2 253 4 463 4 468 1 4 59 7 131
7 149 0 226 13 240 41 15 26 -3 56 -37 63 -16 4 -39 9 -53 12 -24 5 -616 14
-622 9z"/>
<path d="M3172 5866 l3 -591 260 1 c296 1 368 7 396 35 24 24 24 34 0 58 -24
24 -105 32 -324 33 l-167 1 0 211 0 211 157 0 c197 -1 272 8 295 35 20 25 14
54 -15 68 -34 17 -88 21 -269 22 l-168 0 0 190 0 190 189 0 c251 0 321 15 321
67 0 15 -38 42 -71 49 -13 3 -156 7 -317 9 l-292 3 2 -592z"/>
<path d="M4102 6443 c-11 -10 -25 -39 -30 -66 -5 -27 -11 -282 -11 -575 l-2
-528 268 2 c147 0 292 4 322 9 61 8 92 33 84 65 -11 41 -64 50 -310 51 -127 1
-186 5 -188 13 -2 6 -6 220 -9 476 -2 256 -6 474 -9 485 -3 11 -6 25 -6 31 -3
43 -74 67 -109 37z"/>
<path d="M4899 6439 c-10 -10 -21 -39 -25 -66 -10 -59 -11 -904 -2 -988 4 -33
10 -67 13 -76 7 -17 42 -36 63 -33 6 1 19 2 28 3 8 0 23 18 32 39 15 33 17 89
19 517 2 477 -3 575 -32 604 -21 21 -75 21 -96 0z"/>
<path d="M5289 6456 c-1 0 -2 -265 -3 -588 -1 -385 2 -589 9 -591 18 -6 539 0
575 7 64 12 90 27 90 52 0 53 -59 65 -324 66 l-182 0 2 202 c1 110 2 206 3
211 0 6 72 10 189 11 198 1 256 10 267 44 12 39 -17 63 -90 75 -5 1 -91 3
-190 3 l-181 2 0 190 0 190 176 1 c292 1 342 12 326 74 -10 41 -61 48 -378 50
-159 1 -289 2 -289 1z"/>
<path d="M6175 5921 c1 -295 5 -545 8 -556 3 -11 8 -32 11 -46 6 -30 39 -48
80 -42 57 8 64 38 70 288 2 104 7 160 17 180 14 29 17 30 84 30 133 -1 187
-66 264 -321 42 -139 71 -168 172 -175 43 -3 44 -3 44 26 1 59 -93 359 -147
472 -27 56 -29 66 -18 92 6 16 26 43 44 59 109 98 112 326 7 437 -70 75 -124
87 -413 90 l-227 3 4 -537z m421 393 c62 -18 82 -34 105 -81 23 -47 24 -104 2
-168 -30 -87 -123 -146 -244 -153 -75 -4 -77 -4 -95 23 -15 23 -18 52 -20 165
-2 166 3 200 36 218 31 15 159 13 216 -4z"/>
<path d="M31 6436 c-24 -29 -28 -124 -30 -636 l-2 -530 123 5 c365 15 432 20
506 41 75 21 69 41 -19 59 -51 10 -97 15 -214 21 -178 9 -178 9 -180 25 -2 8
-6 156 -9 329 -14 624 -18 664 -72 689 -34 15 -89 14 -103 -3z"/>
<path d="M1753 6443 c-33 -6 -76 -54 -105 -115 -33 -69 -111 -279 -178 -478
-28 -85 -54 -162 -57 -170 -38 -104 -133 -388 -133 -396 0 -14 131 -10 168 5
23 10 31 22 40 61 19 82 73 210 101 243 31 34 63 38 196 24 196 -20 220 -35
250 -159 22 -89 51 -155 75 -168 44 -24 144 -16 161 12 6 9 -137 443 -278 848
-52 148 -96 244 -124 273 -27 27 -55 32 -116 20z m61 -305 c14 -22 47 -115 99
-280 l24 -76 -163 0 c-90 0 -164 2 -164 4 0 1 27 72 60 156 85 217 109 250
144 196z"/>
<path d="M6214 4974 c-5 -1 -22 -5 -37 -8 -43 -10 -64 -56 -72 -155 -4 -47 -8
-104 -10 -126 -3 -38 -7 -176 -6 -202 1 -16 176 -11 238 6 100 28 183 134 183
235 -1 95 -59 178 -156 223 -44 20 -113 33 -140 27z m94 -99 c95 -40 138 -135
97 -214 -13 -27 -96 -90 -119 -92 -6 0 -20 -2 -31 -4 -39 -8 -65 6 -73 39 -14
51 -7 251 9 269 18 21 69 21 117 2z"/>
<path d="M6639 4974 c-1 -12 -1 -454 0 -481 1 -21 4 -22 119 -18 117 3 172 16
172 41 0 20 -34 34 -91 40 -69 7 -97 19 -111 49 -10 23 -9 29 13 50 14 14 41
25 67 29 55 7 84 23 80 44 -4 21 -45 42 -84 42 -36 0 -69 24 -79 57 -7 25 27
62 59 64 129 6 184 38 124 71 -27 14 -268 25 -269 12z"/>
<path d="M42 2480 l0 -2470 2874 0 2874 0 1 638 c1 350 1 646 2 657 0 42 -16
170 -23 190 -10 25 -28 41 -55 48 -11 2 1 5 28 6 54 1 48 -22 48 186 0 69 0
821 0 1671 l-1 1546 -127 -6 c-71 -4 -181 -9 -245 -12 -83 -4 -118 -3 -118 5
0 8 -722 11 -2629 11 l-2629 0 0 -2470z m2753 2075 c91 -10 107 -12 140 -19
63 -12 81 -16 110 -22 101 -20 324 -103 425 -157 183 -100 288 -180 471 -358
132 -130 120 -129 119 -8 -1 57 -1 192 -1 299 l1 195 245 0 c238 0 245 0 246
-20 3 -62 7 -188 14 -410 4 -137 9 -293 10 -345 4 -115 16 -627 21 -875 9
-485 16 -2355 8 -2356 -5 -1 -129 -2 -276 -3 l-268 -1 -1 170 c0 93 0 219 1
279 l1 108 -33 -27 c-18 -15 -60 -52 -93 -82 -168 -155 -224 -200 -325 -266
-104 -67 -167 -99 -279 -141 -78 -30 -318 -99 -381 -110 -14 -2 -41 -7 -60
-10 -19 -3 -48 -8 -65 -11 -111 -19 -396 -25 -527 -12 -108 11 -121 13 -339
62 -67 15 -254 86 -354 135 -123 59 -328 191 -400 255 -211 190 -339 346 -456
560 -76 138 -148 311 -181 435 -12 47 -29 111 -34 135 -12 48 -33 175 -39 230
-4 33 -8 76 -11 95 -2 19 -4 96 -4 170 0 188 7 257 47 470 48 259 194 582 370
818 72 97 254 281 355 360 337 263 755 429 1158 458 47 3 86 7 87 8 5 5 243
-2 298 -9z m2895 -438 c0 -1 -28 -29 -62 -62 l-63 -60 60 63 c55 58 65 67 65
59z m-130 -120 c0 -2 -10 -12 -22 -23 l-23 -19 19 23 c18 21 26 27 26 19z
m-50 -41 c0 -11 -95 -58 -142 -70 -59 -15 -74 -13 -81 13 -4 17 -2 17 25 3 35
-17 86 -6 153 34 42 25 45 26 45 20z m-155 -2417 c-16 -5 -36 -16 -43 -26 -11
-15 -12 -14 -10 10 2 25 6 27 43 26 39 -1 40 -1 10 -10z"/>
<path d="M2507 4044 c-1 -1 -40 -5 -85 -8 -46 -3 -94 -8 -105 -11 -12 -3 -33
-7 -47 -9 -329 -54 -669 -277 -906 -591 -51 -69 -104 -159 -169 -290 -135
-270 -145 -319 -140 -705 3 -248 7 -305 26 -395 32 -151 116 -335 219 -480 80
-112 268 -301 380 -383 47 -34 90 -65 95 -69 48 -37 250 -137 335 -167 151
-53 239 -66 425 -61 94 2 184 6 200 9 54 11 130 26 150 30 168 32 354 121 500
239 65 53 250 238 302 302 45 56 143 193 143 200 0 2 13 25 29 50 71 112 147
368 178 600 10 74 10 322 0 392 -63 449 -320 858 -701 1115 -240 161 -452 227
-749 232 -43 1 -79 1 -80 0z"/>
<path d="M6447 4259 c-142 -22 -327 -174 -378 -309 -16 -43 -21 -77 -20 -163
0 -145 15 -215 48 -230 57 -26 82 30 82 189 1 128 17 193 61 246 62 75 199
113 349 97 179 -19 261 -109 276 -305 10 -125 14 -149 25 -181 19 -52 60 -54
78 -5 26 69 30 97 28 184 -4 135 -49 248 -137 343 -89 97 -273 156 -412 134z"/>
<path d="M6048 3404 c-8 -38 0 -390 11 -430 15 -57 35 -72 69 -53 35 19 42 55
43 227 l0 142 42 0 c324 -1 687 9 715 20 40 15 59 45 42 65 -26 32 -87 37
-501 42 -399 5 -416 4 -421 -13z"/>
<path d="M6053 2837 c-23 -49 39 -116 147 -162 117 -50 136 -78 139 -200 3
-111 -11 -138 -87 -172 -171 -74 -179 -79 -200 -120 -10 -17 -8 -25 6 -43 33
-40 109 -27 374 65 391 135 516 198 534 269 15 61 -64 110 -326 201 -308 107
-545 185 -560 185 -9 0 -22 -11 -27 -23z m584 -298 c33 -11 71 -27 83 -37 l23
-18 -28 -22 c-27 -22 -170 -72 -204 -72 -30 0 -41 22 -41 86 0 101 18 108 167
63z"/>
<path d="M6827 1984 c-1 -1 -112 -5 -247 -9 -448 -13 -502 -21 -508 -78 -3
-23 2 -30 32 -42 19 -8 70 -17 113 -20 252 -17 268 -24 234 -101 -33 -73 -120
-135 -265 -189 -88 -32 -136 -68 -136 -100 0 -67 115 -64 307 6 106 39 140 42
183 19 109 -59 145 -73 195 -73 95 -1 181 60 216 152 19 50 22 78 23 246 l1
190 -73 0 c-41 0 -74 -1 -75 -1z m10 -163 c37 -19 33 -144 -7 -222 -23 -43
-80 -79 -119 -72 -56 8 -121 79 -141 152 -21 78 9 144 70 153 51 7 177 0 197
-11z"/>
<path d="M6055 1263 c-11 -3 -12 -389 -1 -454 12 -73 23 -91 58 -87 26 3 33 9
44 42 8 21 15 93 17 160 2 66 8 131 15 142 14 27 42 32 148 29 114 -3 128 -17
139 -138 10 -111 39 -187 70 -187 28 0 44 55 50 172 7 147 11 152 130 152 116
1 116 1 125 -164 7 -113 11 -135 28 -152 32 -33 69 -18 83 35 11 39 21 419 12
443 -3 8 -138 11 -456 11 -249 0 -457 -2 -462 -4z"/>
<path d="M6894 670 c-30 -12 -44 -60 -44 -156 0 -46 -3 -85 -7 -85 -18 -4 -91
-7 -292 -13 -321 -10 -436 -22 -468 -48 -23 -19 -15 -55 15 -67 27 -11 113
-28 142 -29 8 0 89 -3 180 -7 267 -11 343 -14 386 -14 l42 -1 4 -104 c4 -114
18 -146 64 -146 17 0 26 10 39 44 27 71 27 510 0 596 -8 27 -35 39 -61 30z"/>
</g>
</svg>
