<svg
   width="38"
   height="38"
   viewBox="0 0 43 43"
   class="fill-current inline mr-4">
    <g transform="translate(-30.191566,2.5191233)" />
    <g transform="translate(-20.890403,-77.37398)">
      <g transform="translate(-30.418491,2.6051885)">
        <path d="m 94.171393,117.87281 v -0.78382 l -2.447396,-0.0761 c -1.965264,-0.0611 -2.447396,-0.15426 -2.447396,-0.47295 0,-0.31869 0.482132,-0.41186 2.447396,-0.47295 l 2.447396,-0.0761 v -0.78382 c 0,-0.52034 0.133408,-0.78382 0.396875,-0.78382 0.319704,0 0.396875,0.41158 0.396875,2.11667 0,1.70509 -0.07717,2.11666 -0.396875,2.11666 -0.263467,0 -0.396875,-0.26348 -0.396875,-0.78382 z m -5.027083,-5.43388 v -1.7198 h 2.910416 2.910417 v 1.5875 c 0,1.23473 -0.08819,1.5875 -0.396875,1.5875 -0.286631,0 -0.396875,-0.29398 -0.396875,-1.05833 0,-0.99954 -0.0441,-1.05833 -0.79375,-1.05833 -0.752353,0 -0.79375,0.0563 -0.79375,1.08038 0,1.37854 -0.625623,1.28713 -0.743577,-0.10865 -0.07732,-0.915 -0.13525,-0.97173 -0.992187,-0.97173 -0.902211,0 -0.910069,0.0103 -0.910069,1.19062 0,0.88195 -0.102894,1.19063 -0.396875,1.19063 -0.312074,0 -0.396875,-0.36748 -0.396875,-1.71979 z m 0,-2.86854 c 0,-0.19525 0.474308,-0.4971 1.054015,-0.67079 0.976286,-0.2925 1.838023,-1.19745 1.480611,-1.55487 -0.08474,-0.0847 -0.659937,-0.16384 -1.278207,-0.17577 -0.813192,-0.0157 -1.124128,-0.13148 -1.124128,-0.41858 0,-0.3235 0.525796,-0.41075 2.844271,-0.47197 l 2.844271,-0.0751 v 1.42315 c 0,1.04271 -0.129347,1.54021 -0.483854,1.86103 -0.588677,0.53275 -1.362819,0.56135 -2.028023,0.075 -0.420574,-0.30754 -0.628963,-0.30754 -1.364988,0 -1.103792,0.46119 -1.943968,0.46462 -1.943968,0.008 z m 4.706641,-0.66322 c 0.187558,-0.11899 0.366151,-0.56365 0.396875,-0.98813 0.05184,-0.71629 -0.01073,-0.77178 -0.870183,-0.77178 -0.742693,0 -0.941925,0.11134 -1.006269,0.56233 -0.04412,0.30929 0.11321,0.75577 0.349629,0.99219 0.484605,0.48461 0.644152,0.51361 1.129948,0.20539 z m -4.706641,-3.85606 c 0,-0.20699 0.416719,-0.51388 0.926041,-0.68198 0.81747,-0.26979 0.926042,-0.41137 0.926042,-1.20759 0,-0.78074 -0.12447,-0.95398 -0.926042,-1.28889 -0.530407,-0.22162 -0.926041,-0.57435 -0.926041,-0.82561 0,-0.24128 0.148828,-0.38581 0.330729,-0.32119 0.181901,0.0646 1.497076,0.5154 2.922611,1.00172 2.193594,0.74835 2.579844,0.96427 2.513542,1.40511 -0.05902,0.39243 -0.665536,0.73606 -2.459591,1.39355 -2.655884,0.97332 -3.307291,1.0767 -3.307291,0.52488 z m 4.306001,-2.03256 c -0.112728,-0.10971 -0.532381,-0.28033 -0.932564,-0.37917 -0.648501,-0.16016 -0.727604,-0.10736 -0.727604,0.48568 0,0.63907 0.03688,0.65406 0.932564,0.37917 0.51291,-0.15742 0.840332,-0.37598 0.727604,-0.48568 z M 89.14431,98.812885 v -1.5875 h 2.910416 c 2.410648,0 2.910417,0.06815 2.910417,0.396875 0,0.324927 -0.455671,0.396875 -2.513542,0.396875 H 89.93806 v 1.190625 c 0,0.88194 -0.102894,1.19062 -0.396875,1.19062 -0.308682,0 -0.396875,-0.35277 -0.396875,-1.587495 z m 0.181901,-2.552127 c -0.100047,-0.100045 -0.181901,-0.709745 -0.181901,-1.354887 0,-0.981206 0.147079,-1.320065 0.899583,-2.072569 1.0086,-1.0086 2.261904,-1.193803 3.554682,-0.525281 1.075013,0.555911 1.718549,2.032984 1.456526,3.343093 -0.228089,1.140443 -0.748342,0.809399 -0.767799,-0.488561 -0.02269,-1.513847 -0.670513,-2.170501 -2.141292,-2.170501 -1.573419,0 -2.273913,0.705194 -2.167294,2.18184 0.07293,1.010084 -0.228013,1.511358 -0.652505,1.086866 z m 0.135625,-7.171311 c 0.07092,-1.359735 0.144217,-1.530549 0.68996,-1.607906 0.938723,-0.133062 1.90293,0.630454 1.90293,1.506853 0,0.961578 -0.741301,1.622408 -1.819973,1.622408 h -0.852268 z m 1.903058,0.396875 c 0.374396,-0.597254 -0.06762,-1.35594 -0.858544,-1.47361 -0.503417,-0.0749 -0.56829,0.04047 -0.56829,1.01059 0,0.970122 0.06487,1.085485 0.56829,1.010589 0.312561,-0.0465 0.698905,-0.292907 0.858544,-0.547569 z m 1.483582,-0.46302 v -1.5875 h 0.926042 c 0.509323,0 0.926042,0.119062 0.926042,0.264583 0,0.145521 -0.297657,0.264583 -0.661459,0.264583 -0.411575,0 -0.661458,0.149931 -0.661458,0.396875 0,0.220486 0.235186,0.396875 0.529167,0.396875 0.291041,0 0.529166,0.119063 0.529166,0.264584 0,0.14552 -0.238125,0.264583 -0.529166,0.264583 -0.293981,0 -0.529167,0.176389 -0.529167,0.396875 0,0.246944 0.249883,0.396875 0.661458,0.396875 0.363802,0 0.661459,0.119062 0.661459,0.264583 0,0.145521 -0.416719,0.264584 -0.926042,0.264584 H 92.848476 Z M 51.308894,81.87185 c 0,-3.720201 0.0021,-3.732973 0.595312,-3.648721 0.575448,0.08173 0.597788,0.19227 0.669498,3.31273 l 0.07419,3.228182 1.450212,0.07911 c 2.276897,0.124206 1.8572,0.598391 -0.606396,0.685123 l -2.182812,0.07685 z m 9.208974,0.07385 c 1.138558,-3.334843 1.299054,-3.644645 1.925891,-3.717516 0.654396,-0.07607 0.733089,0.06626 1.828567,3.307292 0.629609,1.862733 1.19783,3.535615 1.262713,3.717516 0.0742,0.208021 -0.128199,0.330729 -0.545513,0.330729 -0.54871,0 -0.703951,-0.171632 -0.897432,-0.992187 -0.223337,-0.947177 -0.292109,-0.998914 -1.515951,-1.140466 -1.250851,-0.144674 -1.290806,-0.127202 -1.644416,0.719106 -0.199329,0.477062 -0.362417,0.990271 -0.362417,1.140466 0,0.150195 -0.291039,0.273081 -0.646755,0.273081 H 59.2758 Z M 63.00744,81.083972 C 62.540524,79.62389 62.436801,79.64112 61.801867,81.284239 l -0.434522,1.124479 h 1.031866 1.031866 z m 4.176454,1.192455 v -3.307292 h -1.190625 c -0.881945,0 -1.190625,-0.102894 -1.190625,-0.396875 0,-0.328725 0.499768,-0.396875 2.910416,-0.396875 2.410648,0 2.910417,0.06815 2.910417,0.396875 0,0.293981 -0.308681,0.396875 -1.190625,0.396875 h -1.190625 v 3.307292 c 0,3.130902 -0.02822,3.307291 -0.529167,3.307291 -0.500944,0 -0.529166,-0.176389 -0.529166,-3.307291 z m 3.96875,-0.396875 v -3.704167 h 2.116666 c 1.705093,0 2.116667,0.07717 2.116667,0.396875 0,0.308681 -0.352778,0.396875 -1.5875,0.396875 h -1.5875 v 1.190625 1.190625 h 1.455208 c 1.11713,0 1.455208,0.0922 1.455208,0.396875 0,0.304672 -0.338078,0.396875 -1.455208,0.396875 h -1.455208 v 1.322917 1.322916 h 1.5875 c 1.234722,0 1.5875,0.08819 1.5875,0.396875 0,0.319705 -0.411574,0.396875 -2.116667,0.396875 h -2.116666 z m 5.556249,0 c 0,-3.527778 0.02519,-3.704167 0.529167,-3.704167 0.500944,0 0.529167,0.176389 0.529167,3.307292 v 3.307291 h 1.5875 c 1.234723,0 1.5875,0.08819 1.5875,0.396875 0,0.319705 -0.411576,0.396875 -2.116667,0.396875 h -2.116667 z m 5.027084,0 c 0,-3.527778 0.02519,-3.704167 0.529166,-3.704167 0.503968,0 0.529167,0.176389 0.529167,3.704167 0,3.527777 -0.02519,3.704166 -0.529167,3.704166 -0.503967,0 -0.529166,-0.176389 -0.529166,-3.704166 z m 2.645833,0 v -3.704167 h 2.116667 c 1.705091,0 2.116666,0.07717 2.116666,0.396875 0,0.308681 -0.352777,0.396875 -1.5875,0.396875 h -1.5875 v 1.190625 1.190625 h 1.455209 c 1.117129,0 1.455208,0.0922 1.455208,0.396875 0,0.304672 -0.338079,0.396875 -1.455208,0.396875 h -1.455209 v 1.322917 1.322916 h 1.5875 c 1.234723,0 1.5875,0.08819 1.5875,0.396875 0,0.319705 -0.411575,0.396875 -2.116666,0.396875 H 84.38181 Z m 5.55625,0 v -3.704167 h 1.719791 c 1.367015,0 1.82834,0.108547 2.248959,0.529167 0.698825,0.698825 0.699312,2.145256 0.0011,2.777279 -0.39061,0.353497 -0.454329,0.567092 -0.244573,0.819833 0.217821,0.262457 1.016654,2.760575 1.034248,3.23431 0.0019,0.0465 -0.25955,0.0465 -0.580614,0 -0.436648,-0.06324 -0.653347,-0.359342 -0.859896,-1.174978 -0.348377,-1.375187 -0.83063,-1.952278 -1.631577,-1.952278 -0.592466,0 -0.629063,0.09236 -0.629063,1.5875 0,1.411111 -0.0588,1.5875 -0.529167,1.5875 -0.503967,0 -0.529166,-0.176389 -0.529166,-3.704166 z m 2.955729,-0.702466 c 0.55273,-0.500215 0.633923,-1.422882 0.166354,-1.890451 -0.174625,-0.174625 -0.710406,-0.3175 -1.190625,-0.3175 -0.87136,0 -0.873125,0.0027 -0.873125,1.322917 0,1.257339 0.03503,1.322916 0.706771,1.322916 0.388723,0 0.924504,-0.197047 1.190625,-0.437882 z M 56.345273,78.506114 c 0.0051,-0.10914 0.224899,-0.972344 0.488415,-1.918229 0.422771,-1.517531 0.561704,-1.729638 1.181329,-1.803512 0.386216,-0.04605 0.70215,0.01349 0.702077,0.132292 -2.31e-4,0.372951 -1.091881,3.110503 -1.378607,3.457157 -0.297069,0.35916 -1.008279,0.45389 -0.993214,0.132292 z"/>
      </g>
      <g transform="translate(-41.760211,37.654521)">
        <path d="M 62.912703,68.061379 V 52.583251 l 16.470312,-4.77e-4 16.470312,-4.76e-4 -0.08965,1.587982 -0.08965,1.587971 h 0.81725 c 1.094015,0 1.104702,0.842091 0.02349,1.852083 -0.436562,0.40781 -0.79375,0.985167 -0.79375,1.283015 0,0.485781 0.08103,0.513293 0.787001,0.267191 0.43285,-0.150892 1.147225,-0.684623 1.5875,-1.186068 l 0.800505,-0.911718 v 2.787332 2.787331 h -1.5875 -1.5875 v 0.79375 0.79375 h 1.5875 1.5875 l 5.29e-4,4.828642 5.29e-4,4.82865 h -1.521836 -1.521838 l -0.08291,0.8599 -0.08291,0.85989 h 1.604264 1.604264 v 3.96875 3.96875 H 80.904462 62.912796 v -15.47812 z m 18.905071,12.83552 c 2.275464,-0.58197 3.426403,-1.20011 5.105866,-2.74225 l 1.124479,-1.03254 v 1.75349 1.75348 h 1.719792 1.719791 v -6.57182 c 0,-3.6145 -0.07852,-9.269972 -0.174498,-12.567708 L 91.138709,55.493667 H 89.593413 88.048119 V 57.3762 59.258732 L 86.92364,58.151268 c -5.695647,-5.60946 -16.21156,-3.469936 -19.912992,4.051414 -2.362926,4.801487 -1.608079,10.958447 1.82696,14.901707 3.121338,3.58315 8.105188,5.03932 12.980166,3.79251 z m -5.213963,-2.92012 c -2.689374,-0.67769 -5.472848,-2.98275 -6.632217,-5.4923 -0.482033,-1.04341 -0.744664,-1.825583 -0.744664,-4.263323 0,-2.75513 0.215494,-2.913097 1.027943,-4.563401 1.021743,-2.075455 2.686133,-3.702359 4.782322,-4.674611 1.994187,-0.924941 5.092477,-0.980073 6.981535,-0.124232 3.836644,1.738199 6.251687,5.688296 5.9498,9.731627 -0.07605,1.01865 -0.397011,2.54081 -0.713237,3.38259 -0.735058,1.95668 -2.978029,4.42202 -4.861594,5.34356 -1.557411,0.76197 -4.193094,1.06245 -5.789888,0.66009 z m 3.651127,-7.78671 c 1.415309,-1.41531 0.420952,-3.84849 -1.572746,-3.84849 -2.094867,0 -3.161774,2.33005 -1.753369,3.82923 0.861226,0.91673 2.419618,0.92576 3.326115,0.0193 z"/>
      </g>
</g>
  </g>
</svg>
